%TF.GenerationSoftware,KiCad,Pcbnew,(6.0.6)*%
%TF.CreationDate,2022-09-09T15:05:40+03:00*%
%TF.ProjectId,main_board,6d61696e-5f62-46f6-9172-642e6b696361,rev?*%
%TF.SameCoordinates,Original*%
%TF.FileFunction,Copper,L1,Top*%
%TF.FilePolarity,Positive*%
%FSLAX46Y46*%
G04 Gerber Fmt 4.6, Leading zero omitted, Abs format (unit mm)*
G04 Created by KiCad (PCBNEW (6.0.6)) date 2022-09-09 15:05:40*
%MOMM*%
%LPD*%
G01*
G04 APERTURE LIST*
G04 Aperture macros list*
%AMRoundRect*
0 Rectangle with rounded corners*
0 $1 Rounding radius*
0 $2 $3 $4 $5 $6 $7 $8 $9 X,Y pos of 4 corners*
0 Add a 4 corners polygon primitive as box body*
4,1,4,$2,$3,$4,$5,$6,$7,$8,$9,$2,$3,0*
0 Add four circle primitives for the rounded corners*
1,1,$1+$1,$2,$3*
1,1,$1+$1,$4,$5*
1,1,$1+$1,$6,$7*
1,1,$1+$1,$8,$9*
0 Add four rect primitives between the rounded corners*
20,1,$1+$1,$2,$3,$4,$5,0*
20,1,$1+$1,$4,$5,$6,$7,0*
20,1,$1+$1,$6,$7,$8,$9,0*
20,1,$1+$1,$8,$9,$2,$3,0*%
G04 Aperture macros list end*
%TA.AperFunction,ComponentPad*%
%ADD10O,1.700000X1.700000*%
%TD*%
%TA.AperFunction,ComponentPad*%
%ADD11R,2.800000X2.800000*%
%TD*%
%TA.AperFunction,ComponentPad*%
%ADD12O,2.800000X2.800000*%
%TD*%
%TA.AperFunction,ComponentPad*%
%ADD13RoundRect,0.249999X1.550001X-0.790001X1.550001X0.790001X-1.550001X0.790001X-1.550001X-0.790001X0*%
%TD*%
%TA.AperFunction,ComponentPad*%
%ADD14O,3.600000X2.080000*%
%TD*%
%TA.AperFunction,ComponentPad*%
%ADD15C,1.524000*%
%TD*%
%TA.AperFunction,ComponentPad*%
%ADD16RoundRect,0.249999X-1.550001X0.790001X-1.550001X-0.790001X1.550001X-0.790001X1.550001X0.790001X0*%
%TD*%
%TA.AperFunction,ComponentPad*%
%ADD17R,1.700000X1.700000*%
%TD*%
%TA.AperFunction,ComponentPad*%
%ADD18O,1.800000X3.600000*%
%TD*%
%TA.AperFunction,ComponentPad*%
%ADD19RoundRect,0.250000X0.650000X1.550000X-0.650000X1.550000X-0.650000X-1.550000X0.650000X-1.550000X0*%
%TD*%
%TA.AperFunction,ComponentPad*%
%ADD20RoundRect,0.250000X1.550000X-0.650000X1.550000X0.650000X-1.550000X0.650000X-1.550000X-0.650000X0*%
%TD*%
%TA.AperFunction,ComponentPad*%
%ADD21O,3.600000X1.800000*%
%TD*%
%TA.AperFunction,ComponentPad*%
%ADD22RoundRect,0.249999X0.790001X1.550001X-0.790001X1.550001X-0.790001X-1.550001X0.790001X-1.550001X0*%
%TD*%
%TA.AperFunction,ComponentPad*%
%ADD23O,2.080000X3.600000*%
%TD*%
%TA.AperFunction,ComponentPad*%
%ADD24R,1.524000X1.524000*%
%TD*%
%TA.AperFunction,ComponentPad*%
%ADD25RoundRect,0.250000X-1.550000X0.650000X-1.550000X-0.650000X1.550000X-0.650000X1.550000X0.650000X0*%
%TD*%
%TA.AperFunction,ViaPad*%
%ADD26C,0.800000*%
%TD*%
%TA.AperFunction,Conductor*%
%ADD27C,0.500000*%
%TD*%
%TA.AperFunction,Conductor*%
%ADD28C,0.250000*%
%TD*%
%TA.AperFunction,Conductor*%
%ADD29C,1.000000*%
%TD*%
G04 APERTURE END LIST*
D10*
%TO.P,U4,1,3.3V*%
%TO.N,/TRANSCEIVER_ON_OFF*%
X142536400Y-147451200D03*
%TO.P,U4,2,GND*%
%TO.N,GND*%
X142536400Y-149991200D03*
%TO.P,U4,3,RX*%
%TO.N,DCAN1RX*%
X142536400Y-152531200D03*
%TO.P,U4,4,TX*%
%TO.N,DCAN1TX*%
X142536400Y-155071200D03*
D11*
%TO.P,U4,5,CANH*%
%TO.N,/CANH_BMS*%
X166502400Y-148841200D03*
D12*
%TO.P,U4,6,CANL*%
%TO.N,/CANL_BMS*%
X166502400Y-153921200D03*
%TD*%
D10*
%TO.P,U3,1,3.3V*%
%TO.N,/TRANSCEIVER_ON_OFF*%
X142587200Y-159084400D03*
%TO.P,U3,2,GND*%
%TO.N,GND*%
X142587200Y-161624400D03*
%TO.P,U3,3,RX*%
%TO.N,GIOB_3{slash}DCAN4RX*%
X142587200Y-164164400D03*
%TO.P,U3,4,TX*%
%TO.N,GIOB_2{slash}DCAN4TX*%
X142587200Y-166704400D03*
D11*
%TO.P,U3,5,CANH*%
%TO.N,/CANH_CURTIS*%
X166553200Y-160474400D03*
D12*
%TO.P,U3,6,CANL*%
%TO.N,/CANL_CURTIS*%
X166553200Y-165554400D03*
%TD*%
D13*
%TO.P,J5,1,Pin_1*%
%TO.N,+5V*%
X21285200Y-91592400D03*
D14*
%TO.P,J5,2,Pin_2*%
X21285200Y-86512400D03*
%TO.P,J5,3,Pin_3*%
X21285200Y-81432400D03*
%TO.P,J5,4,Pin_4*%
X21285200Y-76352400D03*
%TD*%
D15*
%TO.P,U1,1,Vin*%
%TO.N,+5V*%
X22963800Y-166625000D03*
%TO.P,U1,2,3Vo*%
%TO.N,unconnected-(U1-Pad2)*%
X25503800Y-166625000D03*
%TO.P,U1,3,GND*%
%TO.N,GND*%
X28043800Y-166625000D03*
%TO.P,U1,4,SDA*%
%TO.N,MIBSPI3NCS_2{slash}I2C1_SDA{slash}N2HET1_27{slash}NTZ1_2*%
X30583800Y-166625000D03*
%TO.P,U1,5,SCL*%
%TO.N,MIBSPI3NCS_3{slash}I2C1_SCL{slash}N2HET1_29{slash}NTZ1_1*%
X33123800Y-166625000D03*
%TO.P,U1,6,RESET*%
%TO.N,unconnected-(U1-Pad6)*%
X35663800Y-166625000D03*
%TO.P,U1,7,PS0_3V*%
%TO.N,unconnected-(U1-Pad7)*%
X25503800Y-148591000D03*
%TO.P,U1,8,PS1_3V*%
%TO.N,unconnected-(U1-Pad8)*%
X28043800Y-148591000D03*
%TO.P,U1,9,INT_3V*%
%TO.N,unconnected-(U1-Pad9)*%
X30583800Y-148591000D03*
%TO.P,U1,10,I2C_ADDR_3V*%
%TO.N,unconnected-(U1-Pad10)*%
X33123800Y-148591000D03*
%TD*%
D13*
%TO.P,J1,1,Pin_1*%
%TO.N,N2HET2_2{slash}N2HET2_NDIS*%
X21285200Y-43586400D03*
D14*
%TO.P,J1,2,Pin_2*%
%TO.N,/SARJ START*%
X21285200Y-38506400D03*
%TO.P,J1,3,Pin_3*%
%TO.N,GND*%
X21285200Y-33426400D03*
%TO.P,J1,4,Pin_4*%
X21285200Y-28346400D03*
%TD*%
D16*
%TO.P,J2,1,Pin_1*%
%TO.N,+5V*%
X167781100Y-28448000D03*
D14*
%TO.P,J2,2,Pin_2*%
%TO.N,+12V*%
X167781100Y-33528000D03*
%TO.P,J2,3,Pin_3*%
%TO.N,+24V*%
X167781100Y-38608000D03*
%TO.P,J2,4,Pin_4*%
%TO.N,GND*%
X167781100Y-43688000D03*
%TD*%
D17*
%TO.P,MODULE1,1,JD-VCC*%
%TO.N,+5V*%
X153408000Y-67586000D03*
D10*
%TO.P,MODULE1,2,VCC*%
%TO.N,+3V3*%
X150868000Y-67586000D03*
%TO.P,MODULE1,3,GND*%
%TO.N,GND*%
X148328000Y-67586000D03*
%TO.P,MODULE1,4,GND*%
X83693000Y-67564000D03*
%TO.P,MODULE1,5,IN1*%
%TO.N,N2HET2_9*%
X86233000Y-67564000D03*
%TO.P,MODULE1,6,IN2*%
%TO.N,N2HET2_0*%
X88773000Y-67564000D03*
%TO.P,MODULE1,7,IN3*%
%TO.N,N2HET2_1{slash}N2HET1_NDIS*%
X91313000Y-67564000D03*
%TO.P,MODULE1,8,IN4*%
%TO.N,N2HET2_6*%
X93853000Y-67564000D03*
%TO.P,MODULE1,9,IN5*%
%TO.N,N2HET2_7{slash}MIBSPI2NCS_0*%
X96393000Y-67564000D03*
%TO.P,MODULE1,10,IN6*%
%TO.N,N2HET2_10*%
X98933000Y-67564000D03*
%TO.P,MODULE1,11,IN7*%
%TO.N,N2HET2_8*%
X101473000Y-67564000D03*
%TO.P,MODULE1,12,IN8*%
%TO.N,N2HET2_13{slash}MIBSPI2SOMI*%
X104013000Y-67564000D03*
D17*
%TO.P,MODULE1,13,VCC*%
%TO.N,+3V3*%
X106553000Y-67564000D03*
D18*
%TO.P,MODULE1,14,K1_NC*%
%TO.N,unconnected-(MODULE1-Pad14)*%
X34671000Y-26199000D03*
%TO.P,MODULE1,15,K1_COM*%
%TO.N,+24V*%
X39751000Y-26199000D03*
D19*
%TO.P,MODULE1,16,K1_NO*%
%TO.N,/BUZZER ALARM*%
X44831000Y-26199000D03*
D18*
%TO.P,MODULE1,17,K2_NC*%
%TO.N,unconnected-(MODULE1-Pad17)*%
X50131000Y-26199000D03*
%TO.P,MODULE1,18,K2_COM*%
%TO.N,+24V*%
X55211000Y-26199000D03*
D19*
%TO.P,MODULE1,19,K2_NO*%
%TO.N,/RED ALARM*%
X60291000Y-26199000D03*
D18*
%TO.P,MODULE1,20,K3_NC*%
%TO.N,unconnected-(MODULE1-Pad20)*%
X65786000Y-26199000D03*
%TO.P,MODULE1,21,K3_COM*%
%TO.N,+24V*%
X70866000Y-26199000D03*
D19*
%TO.P,MODULE1,22,K3_NO*%
%TO.N,/YELLOW ALARM*%
X75946000Y-26199000D03*
D18*
%TO.P,MODULE1,23,K4_NC*%
%TO.N,unconnected-(MODULE1-Pad23)*%
X81246000Y-26199000D03*
%TO.P,MODULE1,24,K4_COM*%
%TO.N,+24V*%
X86326000Y-26199000D03*
D19*
%TO.P,MODULE1,25,K4_NO*%
%TO.N,/GREEN ALARM*%
X91406000Y-26199000D03*
D18*
%TO.P,MODULE1,26,K5_NC*%
%TO.N,unconnected-(MODULE1-Pad26)*%
X96901000Y-26199000D03*
%TO.P,MODULE1,27,K5_COM*%
%TO.N,/KAPI_KUMANDA_SW1*%
X101981000Y-26199000D03*
D19*
%TO.P,MODULE1,28,K5_NO*%
%TO.N,/KAPI_KUMANDA_SW2*%
X107061000Y-26199000D03*
D18*
%TO.P,MODULE1,29,K6_NC*%
%TO.N,unconnected-(MODULE1-Pad29)*%
X112361000Y-26199000D03*
%TO.P,MODULE1,30,K6_COM*%
%TO.N,+24V*%
X117441000Y-26199000D03*
D19*
%TO.P,MODULE1,31,K6_NO*%
%TO.N,/SARJ START*%
X122521000Y-26199000D03*
D18*
%TO.P,MODULE1,32,K7_NC*%
%TO.N,unconnected-(MODULE1-Pad32)*%
X128050000Y-26162000D03*
%TO.P,MODULE1,33,K7_COM*%
%TO.N,/PC_ON_HEADER_GND*%
X133130000Y-26162000D03*
D19*
%TO.P,MODULE1,34,K7_NO*%
%TO.N,/PC_ON_HEADER*%
X138210000Y-26162000D03*
D18*
%TO.P,MODULE1,35,K8_NC*%
%TO.N,unconnected-(MODULE1-Pad35)*%
X143510000Y-26162000D03*
%TO.P,MODULE1,36,K8_COM*%
%TO.N,unconnected-(MODULE1-Pad36)*%
X148590000Y-26162000D03*
D19*
%TO.P,MODULE1,37,K8_NO*%
%TO.N,unconnected-(MODULE1-Pad37)*%
X153670000Y-26162000D03*
%TD*%
D20*
%TO.P,J4,1,Pin_1*%
%TO.N,N2HET2_23*%
X169095300Y-141264500D03*
D21*
%TO.P,J4,2,Pin_2*%
%TO.N,N2HET2_11*%
X169095300Y-137764500D03*
%TO.P,J4,3,Pin_3*%
%TO.N,DCAN2TX*%
X169095300Y-134264500D03*
%TO.P,J4,4,Pin_4*%
%TO.N,DCAN2RX*%
X169095300Y-130764500D03*
%TO.P,J4,5,Pin_5*%
%TO.N,AD2IN_23*%
X169095300Y-127264500D03*
%TO.P,J4,6,Pin_6*%
%TO.N,AD2IN_24*%
X169095300Y-123764500D03*
%TO.P,J4,7,Pin_7*%
%TO.N,N2HET2_3{slash}MIBSPI2CLK*%
X169095300Y-120264500D03*
%TO.P,J4,8,Pin_8*%
%TO.N,N2HET2_4*%
X169095300Y-116764500D03*
%TD*%
D22*
%TO.P,J9,1,Pin_1*%
%TO.N,GND*%
X66548000Y-162356800D03*
D23*
%TO.P,J9,2,Pin_2*%
X61468000Y-162356800D03*
%TO.P,J9,3,Pin_3*%
X56388000Y-162356800D03*
%TO.P,J9,4,Pin_4*%
X51308000Y-162356800D03*
%TD*%
D16*
%TO.P,J6,1,Pin_1*%
%TO.N,+12V*%
X167813100Y-51866800D03*
D14*
%TO.P,J6,2,Pin_2*%
X167813100Y-56946800D03*
%TO.P,J6,3,Pin_3*%
X167813100Y-62026800D03*
%TO.P,J6,4,Pin_4*%
X167813100Y-67106800D03*
%TD*%
D13*
%TO.P,J3,1,Pin_1*%
%TO.N,MIBSPI3NCS_2{slash}I2C1_SDA{slash}N2HET1_27{slash}NTZ1_2*%
X21285200Y-67716400D03*
D14*
%TO.P,J3,2,Pin_2*%
%TO.N,MIBSPI3NCS_3{slash}I2C1_SCL{slash}N2HET1_29{slash}NTZ1_1*%
X21285200Y-62636400D03*
%TO.P,J3,3,Pin_3*%
%TO.N,+5V*%
X21285200Y-57556400D03*
%TO.P,J3,4,Pin_4*%
%TO.N,GND*%
X21285200Y-52476400D03*
%TD*%
D16*
%TO.P,J8,1,Pin_1*%
%TO.N,GND*%
X167781100Y-75234800D03*
D14*
%TO.P,J8,2,Pin_2*%
X167781100Y-80314800D03*
%TO.P,J8,3,Pin_3*%
X167781100Y-85394800D03*
%TO.P,J8,4,Pin_4*%
X167781100Y-90474800D03*
%TD*%
D15*
%TO.P,U2,J10_50,J10_50*%
%TO.N,unconnected-(U2-PadJ10_50)*%
X154406600Y-140578200D03*
%TO.P,U2,J10_49,J10_49*%
%TO.N,unconnected-(U2-PadJ10_49)*%
X151866600Y-140578200D03*
%TO.P,U2,J10_48,J10_48*%
%TO.N,unconnected-(U2-PadJ10_48)*%
X149326600Y-140578200D03*
%TO.P,U2,J10_47,J10_47*%
%TO.N,unconnected-(U2-PadJ10_47)*%
X146786600Y-140578200D03*
%TO.P,U2,J10_46,J10_46*%
%TO.N,N2HET2_13{slash}MIBSPI2SOMI*%
X144246600Y-140578200D03*
%TO.P,U2,J10_45,J10_45*%
%TO.N,DCAN1TX*%
X141706600Y-140578200D03*
%TO.P,U2,J10_44,J10_44*%
%TO.N,DCAN1RX*%
X139166600Y-140578200D03*
%TO.P,U2,J10_43,J10_43*%
%TO.N,unconnected-(U2-PadJ10_43)*%
X136626600Y-140578200D03*
%TO.P,U2,J10_42,J10_42*%
%TO.N,unconnected-(U2-PadJ10_42)*%
X134086600Y-140578200D03*
D24*
%TO.P,U2,J10_41,J10_41*%
%TO.N,unconnected-(U2-PadJ10_41)*%
X131546600Y-140578200D03*
D15*
%TO.P,U2,J10_40,J10_40*%
%TO.N,unconnected-(U2-PadJ10_40)*%
X129006600Y-140578200D03*
%TO.P,U2,J10_39,J10_39*%
%TO.N,unconnected-(U2-PadJ10_39)*%
X126466600Y-140578200D03*
%TO.P,U2,J10_38,J10_38*%
%TO.N,unconnected-(U2-PadJ10_38)*%
X123926600Y-140578200D03*
%TO.P,U2,J10_37,J10_37*%
%TO.N,unconnected-(U2-PadJ10_37)*%
X121386600Y-140578200D03*
%TO.P,U2,J10_36,J10_36*%
%TO.N,unconnected-(U2-PadJ10_36)*%
X118846600Y-140578200D03*
%TO.P,U2,J10_35,J10_35*%
%TO.N,unconnected-(U2-PadJ10_35)*%
X116306600Y-140578200D03*
%TO.P,U2,J10_34,J10_34*%
%TO.N,unconnected-(U2-PadJ10_34)*%
X113766600Y-140578200D03*
%TO.P,U2,J10_33,J10_33*%
%TO.N,unconnected-(U2-PadJ10_33)*%
X111226600Y-140578200D03*
%TO.P,U2,J10_32,J10_32*%
%TO.N,unconnected-(U2-PadJ10_32)*%
X108686600Y-140578200D03*
D24*
%TO.P,U2,J10_31,J10_31*%
%TO.N,unconnected-(U2-PadJ10_31)*%
X106146600Y-140578200D03*
D15*
%TO.P,U2,J10_30,J10_30*%
%TO.N,unconnected-(U2-PadJ10_30)*%
X103606600Y-140578200D03*
%TO.P,U2,J10_29,J10_29*%
%TO.N,unconnected-(U2-PadJ10_29)*%
X101066600Y-140578200D03*
%TO.P,U2,J10_28,J10_28*%
%TO.N,unconnected-(U2-PadJ10_28)*%
X98526600Y-140578200D03*
%TO.P,U2,J10_27,J10_27*%
%TO.N,unconnected-(U2-PadJ10_27)*%
X95986600Y-140578200D03*
%TO.P,U2,J10_26,J10_26*%
%TO.N,unconnected-(U2-PadJ10_26)*%
X93446600Y-140578200D03*
%TO.P,U2,J10_25,J10_25*%
%TO.N,unconnected-(U2-PadJ10_25)*%
X90906600Y-140578200D03*
%TO.P,U2,J10_24,J10_24*%
%TO.N,unconnected-(U2-PadJ10_24)*%
X88366600Y-140578200D03*
%TO.P,U2,J10_23,J10_23*%
%TO.N,unconnected-(U2-PadJ10_23)*%
X85826600Y-140578200D03*
%TO.P,U2,J10_22,J10_22*%
%TO.N,unconnected-(U2-PadJ10_22)*%
X83286600Y-140578200D03*
D24*
%TO.P,U2,J10_21,J10_21*%
%TO.N,unconnected-(U2-PadJ10_21)*%
X80746600Y-140578200D03*
D15*
%TO.P,U2,J10_20,J10_20*%
%TO.N,unconnected-(U2-PadJ10_20)*%
X78206600Y-140578200D03*
%TO.P,U2,J10_19,J10_19*%
%TO.N,N2HET2_8*%
X75666600Y-140578200D03*
%TO.P,U2,J10_18,J10_18*%
%TO.N,unconnected-(U2-PadJ10_18)*%
X73126600Y-140578200D03*
%TO.P,U2,J10_17,J10_17*%
%TO.N,unconnected-(U2-PadJ10_17)*%
X70586600Y-140578200D03*
%TO.P,U2,J10_16,J10_16*%
%TO.N,GIOB_3{slash}DCAN4RX*%
X68046600Y-140578200D03*
%TO.P,U2,J10_15,J10_15*%
%TO.N,unconnected-(U2-PadJ10_15)*%
X65506600Y-140578200D03*
%TO.P,U2,J10_14,J10_14*%
%TO.N,unconnected-(U2-PadJ10_14)*%
X62966600Y-140578200D03*
%TO.P,U2,J10_13,J10_13*%
%TO.N,unconnected-(U2-PadJ10_13)*%
X60426600Y-140578200D03*
%TO.P,U2,J10_12,J10_12*%
%TO.N,unconnected-(U2-PadJ10_12)*%
X57886600Y-140578200D03*
D24*
%TO.P,U2,J10_11,J10_11*%
%TO.N,unconnected-(U2-PadJ10_11)*%
X55346600Y-140578200D03*
D15*
%TO.P,U2,J10_10,J10_10*%
%TO.N,unconnected-(U2-PadJ10_10)*%
X52806600Y-140578200D03*
%TO.P,U2,J10_9,J10_9*%
%TO.N,unconnected-(U2-PadJ10_9)*%
X50266600Y-140578200D03*
%TO.P,U2,J10_8,J10_8*%
%TO.N,unconnected-(U2-PadJ10_8)*%
X47726600Y-140578200D03*
%TO.P,U2,J10_7,J10_7*%
%TO.N,unconnected-(U2-PadJ10_7)*%
X45186600Y-140578200D03*
%TO.P,U2,J10_6,J10_6*%
%TO.N,unconnected-(U2-PadJ10_6)*%
X42646600Y-140578200D03*
%TO.P,U2,J10_5,J10_5*%
%TO.N,GIOB_2{slash}DCAN4TX*%
X40106600Y-140578200D03*
%TO.P,U2,J10_4,J10_4*%
%TO.N,unconnected-(U2-PadJ10_4)*%
X37566600Y-140578200D03*
%TO.P,U2,J10_3,J10_3*%
%TO.N,unconnected-(U2-PadJ10_3)*%
X35026600Y-140578200D03*
%TO.P,U2,J10_2,J10_2*%
%TO.N,unconnected-(U2-PadJ10_2)*%
X32486600Y-140578200D03*
D24*
%TO.P,U2,J10_1,J10_1*%
%TO.N,unconnected-(U2-PadJ10_1)*%
X29946600Y-140578200D03*
D15*
%TO.P,U2,J9_50,J9_50*%
%TO.N,unconnected-(U2-PadJ9_50)*%
X154406600Y-77078200D03*
%TO.P,U2,J9_49,J9_49*%
%TO.N,unconnected-(U2-PadJ9_49)*%
X151866600Y-77078200D03*
%TO.P,U2,J9_48,J9_48*%
%TO.N,unconnected-(U2-PadJ9_48)*%
X149326600Y-77078200D03*
%TO.P,U2,J9_47,J9_47*%
%TO.N,unconnected-(U2-PadJ9_47)*%
X146786600Y-77078200D03*
%TO.P,U2,J9_46,J9_46*%
%TO.N,unconnected-(U2-PadJ9_46)*%
X144246600Y-77078200D03*
%TO.P,U2,J9_45,J9_45*%
%TO.N,unconnected-(U2-PadJ9_45)*%
X141706600Y-77078200D03*
%TO.P,U2,J9_44,J9_44*%
%TO.N,unconnected-(U2-PadJ9_44)*%
X139166600Y-77078200D03*
%TO.P,U2,J9_43,J9_43*%
%TO.N,unconnected-(U2-PadJ9_43)*%
X136626600Y-77078200D03*
%TO.P,U2,J9_42,J9_42*%
%TO.N,unconnected-(U2-PadJ9_42)*%
X134086600Y-77078200D03*
D24*
%TO.P,U2,J9_41,J9_41*%
%TO.N,unconnected-(U2-PadJ9_41)*%
X131546600Y-77078200D03*
D15*
%TO.P,U2,J9_40,J9_40*%
%TO.N,unconnected-(U2-PadJ9_40)*%
X129006600Y-77078200D03*
%TO.P,U2,J9_39,J9_39*%
%TO.N,unconnected-(U2-PadJ9_39)*%
X126466600Y-77078200D03*
%TO.P,U2,J9_38,J9_38*%
%TO.N,unconnected-(U2-PadJ9_38)*%
X123926600Y-77078200D03*
%TO.P,U2,J9_37,J9_37*%
%TO.N,unconnected-(U2-PadJ9_37)*%
X121386600Y-77078200D03*
%TO.P,U2,J9_36,J9_36*%
%TO.N,unconnected-(U2-PadJ9_36)*%
X118846600Y-77078200D03*
%TO.P,U2,J9_35,J9_35*%
%TO.N,unconnected-(U2-PadJ9_35)*%
X116306600Y-77078200D03*
%TO.P,U2,J9_34,J9_34*%
%TO.N,unconnected-(U2-PadJ9_34)*%
X113766600Y-77078200D03*
%TO.P,U2,J9_33,J9_33*%
%TO.N,unconnected-(U2-PadJ9_33)*%
X111226600Y-77078200D03*
%TO.P,U2,J9_32,J9_32*%
%TO.N,unconnected-(U2-PadJ9_32)*%
X108686600Y-77078200D03*
D24*
%TO.P,U2,J9_31,J9_31*%
%TO.N,unconnected-(U2-PadJ9_31)*%
X106146600Y-77078200D03*
D15*
%TO.P,U2,J9_30,J9_30*%
%TO.N,AD2IN_24*%
X103606600Y-77078200D03*
%TO.P,U2,J9_29,J9_29*%
%TO.N,AD2IN_23*%
X101066600Y-77078200D03*
%TO.P,U2,J9_28,J9_28*%
%TO.N,N2HET2_22*%
X98526600Y-77078200D03*
%TO.P,U2,J9_27,J9_27*%
%TO.N,N2HET2_9*%
X95986600Y-77078200D03*
%TO.P,U2,J9_26,J9_26*%
%TO.N,N2HET2_10*%
X93446600Y-77078200D03*
%TO.P,U2,J9_25,J9_25*%
%TO.N,unconnected-(U2-PadJ9_25)*%
X90906600Y-77078200D03*
%TO.P,U2,J9_24,J9_24*%
%TO.N,N2HET2_11*%
X88366600Y-77078200D03*
%TO.P,U2,J9_23,J9_23*%
%TO.N,N2HET2_23*%
X85826600Y-77078200D03*
%TO.P,U2,J9_22,J9_22*%
%TO.N,N2HET2_14{slash}MIBSPI2SIMO*%
X83286600Y-77078200D03*
D24*
%TO.P,U2,J9_21,J9_21*%
%TO.N,unconnected-(U2-PadJ9_21)*%
X80746600Y-77078200D03*
D15*
%TO.P,U2,J9_20,J9_20*%
%TO.N,N2HET2_7{slash}MIBSPI2NCS_0*%
X78206600Y-77078200D03*
%TO.P,U2,J9_19,J9_19*%
%TO.N,unconnected-(U2-PadJ9_19)*%
X75666600Y-77078200D03*
%TO.P,U2,J9_18,J9_18*%
%TO.N,N2HET2_2{slash}N2HET2_NDIS*%
X73126600Y-77078200D03*
%TO.P,U2,J9_17,J9_17*%
%TO.N,N2HET2_3{slash}MIBSPI2CLK*%
X70586600Y-77078200D03*
%TO.P,U2,J9_16,J9_16*%
%TO.N,unconnected-(U2-PadJ9_16)*%
X68046600Y-77078200D03*
%TO.P,U2,J9_15,J9_15*%
%TO.N,unconnected-(U2-PadJ9_15)*%
X65506600Y-77078200D03*
%TO.P,U2,J9_14,J9_14*%
%TO.N,N2HET2_4*%
X62966600Y-77078200D03*
%TO.P,U2,J9_13,J9_13*%
%TO.N,DCAN2TX*%
X60426600Y-77078200D03*
%TO.P,U2,J9_12,J9_12*%
%TO.N,DCAN2RX*%
X57886600Y-77078200D03*
D24*
%TO.P,U2,J9_11,J9_11*%
%TO.N,unconnected-(U2-PadJ9_11)*%
X55346600Y-77078200D03*
D15*
%TO.P,U2,J9_10,J9_10*%
%TO.N,unconnected-(U2-PadJ9_10)*%
X52806600Y-77078200D03*
%TO.P,U2,J9_9,J9_9*%
%TO.N,unconnected-(U2-PadJ9_9)*%
X50266600Y-77078200D03*
%TO.P,U2,J9_8,J9_8*%
%TO.N,unconnected-(U2-PadJ9_8)*%
X47726600Y-77078200D03*
%TO.P,U2,J9_7,J9_7*%
%TO.N,N2HET2_6*%
X45186600Y-77078200D03*
%TO.P,U2,J9_6,J9_6*%
%TO.N,N2HET2_1{slash}N2HET1_NDIS*%
X42646600Y-77078200D03*
%TO.P,U2,J9_5,J9_5*%
%TO.N,N2HET2_0*%
X40106600Y-77078200D03*
%TO.P,U2,J9_4,J9_4*%
%TO.N,unconnected-(U2-PadJ9_4)*%
X37566600Y-77078200D03*
%TO.P,U2,J9_3,J9_3*%
%TO.N,+3V3*%
X35026600Y-77078200D03*
%TO.P,U2,J9_2,J9_2*%
%TO.N,unconnected-(U2-PadJ9_2)*%
X32486600Y-77078200D03*
D24*
%TO.P,U2,J9_1,J9_1*%
%TO.N,unconnected-(U2-PadJ9_1)*%
X29946600Y-77078200D03*
D15*
%TO.P,U2,J8_10,J8_10*%
%TO.N,unconnected-(U2-PadJ8_10)*%
X131546600Y-88508200D03*
%TO.P,U2,J8_9,J8_9*%
%TO.N,unconnected-(U2-PadJ8_9)*%
X129006600Y-88508200D03*
%TO.P,U2,J8_8,J8_8*%
%TO.N,unconnected-(U2-PadJ8_8)*%
X126466600Y-88508200D03*
%TO.P,U2,J8_7,J8_7*%
%TO.N,unconnected-(U2-PadJ8_7)*%
X123926600Y-88508200D03*
%TO.P,U2,J8_6,J8_6*%
%TO.N,unconnected-(U2-PadJ8_6)*%
X121386600Y-88508200D03*
%TO.P,U2,J8_5,J8_5*%
%TO.N,unconnected-(U2-PadJ8_5)*%
X118846600Y-88508200D03*
%TO.P,U2,J8_4,J8_4*%
%TO.N,unconnected-(U2-PadJ8_4)*%
X116306600Y-88508200D03*
%TO.P,U2,J8_3,J8_3*%
%TO.N,unconnected-(U2-PadJ8_3)*%
X113766600Y-88508200D03*
%TO.P,U2,J8_2,J8_2*%
%TO.N,unconnected-(U2-PadJ8_2)*%
X111226600Y-88508200D03*
D24*
%TO.P,U2,J8_1,J8_1*%
%TO.N,unconnected-(U2-PadJ8_1)*%
X108686600Y-88508200D03*
D15*
%TO.P,U2,J7_10,J7_10*%
%TO.N,unconnected-(U2-PadJ7_10)*%
X131546600Y-129148200D03*
%TO.P,U2,J7_9,J7_9*%
%TO.N,unconnected-(U2-PadJ7_9)*%
X129006600Y-129148200D03*
%TO.P,U2,J7_8,J7_8*%
%TO.N,unconnected-(U2-PadJ7_8)*%
X126466600Y-129148200D03*
%TO.P,U2,J7_7,J7_7*%
%TO.N,unconnected-(U2-PadJ7_7)*%
X123926600Y-129148200D03*
%TO.P,U2,J7_6,J7_6*%
%TO.N,unconnected-(U2-PadJ7_6)*%
X121386600Y-129148200D03*
%TO.P,U2,J7_5,J7_5*%
%TO.N,unconnected-(U2-PadJ7_5)*%
X118846600Y-129148200D03*
%TO.P,U2,J7_4,J7_4*%
%TO.N,unconnected-(U2-PadJ7_4)*%
X116306600Y-129148200D03*
%TO.P,U2,J7_3,J7_3*%
%TO.N,unconnected-(U2-PadJ7_3)*%
X113766600Y-129148200D03*
%TO.P,U2,J7_2,J7_2*%
%TO.N,unconnected-(U2-PadJ7_2)*%
X111226600Y-129148200D03*
D24*
%TO.P,U2,J7_1,J7_1*%
%TO.N,unconnected-(U2-PadJ7_1)*%
X108686600Y-129148200D03*
D15*
%TO.P,U2,J6_10,J6_10*%
%TO.N,unconnected-(U2-PadJ6_10)*%
X131546600Y-85968200D03*
%TO.P,U2,J6_9,J6_9*%
%TO.N,unconnected-(U2-PadJ6_9)*%
X129006600Y-85968200D03*
%TO.P,U2,J6_8,J6_8*%
%TO.N,unconnected-(U2-PadJ6_8)*%
X126466600Y-85968200D03*
%TO.P,U2,J6_7,J6_7*%
%TO.N,unconnected-(U2-PadJ6_7)*%
X123926600Y-85968200D03*
%TO.P,U2,J6_6,J6_6*%
%TO.N,unconnected-(U2-PadJ6_6)*%
X121386600Y-85968200D03*
%TO.P,U2,J6_5,J6_5*%
%TO.N,unconnected-(U2-PadJ6_5)*%
X118846600Y-85968200D03*
%TO.P,U2,J6_4,J6_4*%
%TO.N,unconnected-(U2-PadJ6_4)*%
X116306600Y-85968200D03*
%TO.P,U2,J6_3,J6_3*%
%TO.N,unconnected-(U2-PadJ6_3)*%
X113766600Y-85968200D03*
%TO.P,U2,J6_2,J6_2*%
%TO.N,unconnected-(U2-PadJ6_2)*%
X111226600Y-85968200D03*
D24*
%TO.P,U2,J6_1,J6_1*%
%TO.N,unconnected-(U2-PadJ6_1)*%
X108686600Y-85968200D03*
D15*
%TO.P,U2,J5_10,J5_10*%
%TO.N,unconnected-(U2-PadJ5_10)*%
X131546600Y-131688200D03*
%TO.P,U2,J5_9,J5_9*%
%TO.N,unconnected-(U2-PadJ5_9)*%
X129006600Y-131688200D03*
%TO.P,U2,J5_8,J5_8*%
%TO.N,unconnected-(U2-PadJ5_8)*%
X126466600Y-131688200D03*
%TO.P,U2,J5_7,J5_7*%
%TO.N,unconnected-(U2-PadJ5_7)*%
X123926600Y-131688200D03*
%TO.P,U2,J5_6,J5_6*%
%TO.N,unconnected-(U2-PadJ5_6)*%
X121386600Y-131688200D03*
%TO.P,U2,J5_5,J5_5*%
%TO.N,unconnected-(U2-PadJ5_5)*%
X118846600Y-131688200D03*
%TO.P,U2,J5_4,J5_4*%
%TO.N,unconnected-(U2-PadJ5_4)*%
X116306600Y-131688200D03*
%TO.P,U2,J5_3,J5_3*%
%TO.N,unconnected-(U2-PadJ5_3)*%
X113766600Y-131688200D03*
%TO.P,U2,J5_2,J5_2*%
%TO.N,unconnected-(U2-PadJ5_2)*%
X111226600Y-131688200D03*
D24*
%TO.P,U2,J5_1,J5_1*%
%TO.N,unconnected-(U2-PadJ5_1)*%
X108686600Y-131688200D03*
D15*
%TO.P,U2,J4_10,J4_10*%
%TO.N,unconnected-(U2-PadJ4_10)*%
X68046600Y-88508200D03*
%TO.P,U2,J4_9,J4_9*%
%TO.N,unconnected-(U2-PadJ4_9)*%
X65506600Y-88508200D03*
%TO.P,U2,J4_8,J4_8*%
%TO.N,unconnected-(U2-PadJ4_8)*%
X62966600Y-88508200D03*
%TO.P,U2,J4_7,J4_7*%
%TO.N,unconnected-(U2-PadJ4_7)*%
X60426600Y-88508200D03*
%TO.P,U2,J4_6,J4_6*%
%TO.N,unconnected-(U2-PadJ4_6)*%
X57886600Y-88508200D03*
%TO.P,U2,J4_5,J4_5*%
%TO.N,unconnected-(U2-PadJ4_5)*%
X55346600Y-88508200D03*
%TO.P,U2,J4_4,J4_4*%
%TO.N,unconnected-(U2-PadJ4_4)*%
X52806600Y-88508200D03*
%TO.P,U2,J4_3,J4_3*%
%TO.N,unconnected-(U2-PadJ4_3)*%
X50266600Y-88508200D03*
%TO.P,U2,J4_2,J4_2*%
%TO.N,unconnected-(U2-PadJ4_2)*%
X47726600Y-88508200D03*
D24*
%TO.P,U2,J4_1,J4_1*%
%TO.N,unconnected-(U2-PadJ4_1)*%
X45186600Y-88508200D03*
D15*
%TO.P,U2,J3_10,J3_10*%
%TO.N,unconnected-(U2-PadJ3_10)*%
X68046600Y-129148200D03*
%TO.P,U2,J3_9,J3_9*%
%TO.N,unconnected-(U2-PadJ3_9)*%
X65506600Y-129148200D03*
%TO.P,U2,J3_8,J3_8*%
%TO.N,unconnected-(U2-PadJ3_8)*%
X62966600Y-129148200D03*
%TO.P,U2,J3_7,J3_7*%
%TO.N,unconnected-(U2-PadJ3_7)*%
X60426600Y-129148200D03*
%TO.P,U2,J3_6,J3_6*%
%TO.N,unconnected-(U2-PadJ3_6)*%
X57886600Y-129148200D03*
%TO.P,U2,J3_5,J3_5*%
%TO.N,unconnected-(U2-PadJ3_5)*%
X55346600Y-129148200D03*
%TO.P,U2,J3_4,J3_4*%
%TO.N,unconnected-(U2-PadJ3_4)*%
X52806600Y-129148200D03*
%TO.P,U2,J3_3,J3_3*%
%TO.N,unconnected-(U2-PadJ3_3)*%
X50266600Y-129148200D03*
%TO.P,U2,J3_2,J3_2*%
%TO.N,unconnected-(U2-PadJ3_2)*%
X47726600Y-129148200D03*
D24*
%TO.P,U2,J3_1,J3_1*%
%TO.N,unconnected-(U2-PadJ3_1)*%
X45186600Y-129148200D03*
D15*
%TO.P,U2,J2_10,J2_10*%
%TO.N,unconnected-(U2-PadJ2_10)*%
X68046600Y-85968200D03*
%TO.P,U2,J2_9,J2_9*%
%TO.N,MIBSPI3NCS_3{slash}I2C1_SCL{slash}N2HET1_29{slash}NTZ1_1*%
X65506600Y-85968200D03*
%TO.P,U2,J2_8,J2_8*%
%TO.N,MIBSPI3NCS_2{slash}I2C1_SDA{slash}N2HET1_27{slash}NTZ1_2*%
X62966600Y-85968200D03*
%TO.P,U2,J2_7,J2_7*%
%TO.N,unconnected-(U2-PadJ2_7)*%
X60426600Y-85968200D03*
%TO.P,U2,J2_6,J2_6*%
%TO.N,unconnected-(U2-PadJ2_6)*%
X57886600Y-85968200D03*
%TO.P,U2,J2_5,J2_5*%
%TO.N,unconnected-(U2-PadJ2_5)*%
X55346600Y-85968200D03*
%TO.P,U2,J2_4,J2_4*%
%TO.N,unconnected-(U2-PadJ2_4)*%
X52806600Y-85968200D03*
%TO.P,U2,J2_3,J2_3*%
%TO.N,unconnected-(U2-PadJ2_3)*%
X50266600Y-85968200D03*
%TO.P,U2,J2_2,J2_2*%
%TO.N,unconnected-(U2-PadJ2_2)*%
X47726600Y-85968200D03*
D24*
%TO.P,U2,J2_1,J2_1*%
%TO.N,unconnected-(U2-PadJ2_1)*%
X45186600Y-85968200D03*
D15*
%TO.P,U2,J1_10,J1_10*%
%TO.N,unconnected-(U2-PadJ1_10)*%
X68046600Y-131688200D03*
%TO.P,U2,J1_9,J1_9*%
%TO.N,unconnected-(U2-PadJ1_9)*%
X65506600Y-131688200D03*
%TO.P,U2,J1_8,J1_8*%
%TO.N,unconnected-(U2-PadJ1_8)*%
X62966600Y-131688200D03*
%TO.P,U2,J1_7,J1_7*%
%TO.N,unconnected-(U2-PadJ1_7)*%
X60426600Y-131688200D03*
%TO.P,U2,J1_6,J1_6*%
%TO.N,unconnected-(U2-PadJ1_6)*%
X57886600Y-131688200D03*
%TO.P,U2,J1_5,J1_5*%
%TO.N,unconnected-(U2-PadJ1_5)*%
X55346600Y-131688200D03*
%TO.P,U2,J1_4,J1_4*%
%TO.N,unconnected-(U2-PadJ1_4)*%
X52806600Y-131688200D03*
%TO.P,U2,J1_3,J1_3*%
%TO.N,unconnected-(U2-PadJ1_3)*%
X50266600Y-131688200D03*
%TO.P,U2,J1_2,J1_2*%
%TO.N,unconnected-(U2-PadJ1_2)*%
X47726600Y-131688200D03*
D24*
%TO.P,U2,J1_1,J1_1*%
%TO.N,unconnected-(U2-PadJ1_1)*%
X45186600Y-131688200D03*
%TD*%
D10*
%TO.P,U5,6,5V*%
%TO.N,+5V*%
X102805200Y-157126000D03*
%TO.P,U5,5,GND*%
%TO.N,GND*%
X102805200Y-159666000D03*
D17*
%TO.P,U5,4,IN*%
%TO.N,N2HET2_14{slash}MIBSPI2SIMO*%
X102805200Y-162206000D03*
D25*
%TO.P,U5,3,NC*%
%TO.N,unconnected-(U5-Pad3)*%
X136019200Y-154498000D03*
D21*
%TO.P,U5,2,COM*%
%TO.N,+3V3*%
X136019200Y-159578000D03*
%TO.P,U5,1,NO*%
%TO.N,/TRANSCEIVER_ON_OFF*%
X136019200Y-164658000D03*
%TD*%
D22*
%TO.P,J7,1,Pin_1*%
%TO.N,+24V*%
X90932000Y-162356800D03*
D23*
%TO.P,J7,2,Pin_2*%
X85852000Y-162356800D03*
%TO.P,J7,3,Pin_3*%
X80772000Y-162356800D03*
%TO.P,J7,4,Pin_4*%
X75692000Y-162356800D03*
%TD*%
D26*
%TO.N,MIBSPI3NCS_3{slash}I2C1_SCL{slash}N2HET1_29{slash}NTZ1_1*%
X29819600Y-80822800D03*
X29819600Y-82905600D03*
%TO.N,+5V*%
X24688800Y-144322800D03*
X21539200Y-147218400D03*
%TO.N,GND*%
X24536400Y-141376400D03*
%TO.N,DCAN2RX*%
X120243600Y-97028000D03*
%TO.N,DCAN2TX*%
X117144800Y-97840800D03*
%TO.N,N2HET2_4*%
X112318800Y-94589600D03*
%TO.N,N2HET2_3{slash}MIBSPI2CLK*%
X162610800Y-120243600D03*
%TD*%
D27*
%TO.N,N2HET2_2{slash}N2HET2_NDIS*%
X39634800Y-43586400D02*
X21285200Y-43586400D01*
X73126600Y-77078200D02*
X39634800Y-43586400D01*
%TO.N,/TRANSCEIVER_ON_OFF*%
X140411200Y-149576400D02*
X142536400Y-147451200D01*
X140411200Y-156908400D02*
X140411200Y-149576400D01*
X142587200Y-159084400D02*
X140411200Y-156908400D01*
D28*
%TO.N,N2HET2_9*%
X86258400Y-67564000D02*
X86233000Y-67564000D01*
X95772600Y-77078200D02*
X86258400Y-67564000D01*
X95986600Y-77078200D02*
X95772600Y-77078200D01*
%TO.N,N2HET2_11*%
X144830800Y-98755200D02*
X110043600Y-98755200D01*
X110043600Y-98755200D02*
X88366600Y-77078200D01*
X164947600Y-118872000D02*
X144830800Y-98755200D01*
X164947600Y-133616800D02*
X164947600Y-118872000D01*
X169095300Y-137764500D02*
X164947600Y-133616800D01*
%TO.N,AD2IN_24*%
X110337600Y-95402400D02*
X103606600Y-88671400D01*
X144322800Y-95402400D02*
X110337600Y-95402400D01*
X166970300Y-121639500D02*
X166970300Y-118049900D01*
X166970300Y-118049900D02*
X144322800Y-95402400D01*
X103606600Y-88671400D02*
X103606600Y-77078200D01*
X169095300Y-123764500D02*
X166970300Y-121639500D01*
%TO.N,MIBSPI3NCS_2{slash}I2C1_SDA{slash}N2HET1_27{slash}NTZ1_2*%
X24384000Y-75946000D02*
X24384000Y-70815200D01*
X24384000Y-70815200D02*
X21285200Y-67716400D01*
X28651200Y-81788000D02*
X28651200Y-80213200D01*
X28651200Y-80213200D02*
X24384000Y-75946000D01*
%TO.N,MIBSPI3NCS_3{slash}I2C1_SCL{slash}N2HET1_29{slash}NTZ1_1*%
X25196800Y-75590400D02*
X25196800Y-66548000D01*
X25196800Y-66548000D02*
X21285200Y-62636400D01*
X29819600Y-80213200D02*
X25196800Y-75590400D01*
X29819600Y-80822800D02*
X29819600Y-80213200D01*
X60361200Y-80822800D02*
X29819600Y-80822800D01*
X19202400Y-152704800D02*
X19405600Y-152908000D01*
X19202400Y-101244400D02*
X19202400Y-152704800D01*
X29819600Y-82905600D02*
X29819600Y-90627200D01*
X29819600Y-90627200D02*
X19202400Y-101244400D01*
X19405600Y-152908000D02*
X19406800Y-152908000D01*
X19406800Y-152908000D02*
X33123800Y-166625000D01*
%TO.N,MIBSPI3NCS_2{slash}I2C1_SDA{slash}N2HET1_27{slash}NTZ1_2*%
X28651200Y-90525600D02*
X28651200Y-81788000D01*
X18542000Y-153162000D02*
X18542000Y-100634800D01*
X30583800Y-165203800D02*
X18542000Y-153162000D01*
X30583800Y-166625000D02*
X30583800Y-165203800D01*
X18542000Y-100634800D02*
X28651200Y-90525600D01*
%TO.N,MIBSPI3NCS_3{slash}I2C1_SCL{slash}N2HET1_29{slash}NTZ1_1*%
X65506600Y-85968200D02*
X60361200Y-80822800D01*
%TO.N,MIBSPI3NCS_2{slash}I2C1_SDA{slash}N2HET1_27{slash}NTZ1_2*%
X58786400Y-81788000D02*
X28651200Y-81788000D01*
X62966600Y-85968200D02*
X58786400Y-81788000D01*
D29*
%TO.N,GND*%
X83693000Y-66827400D02*
X83693000Y-67564000D01*
X86910800Y-63609600D02*
X83693000Y-66827400D01*
X148328000Y-63609600D02*
X86910800Y-63609600D01*
%TO.N,+24V*%
X117441000Y-26199000D02*
X130307200Y-39065200D01*
X70866000Y-32258000D02*
X77673200Y-39065200D01*
X70866000Y-26199000D02*
X70866000Y-32258000D01*
X86326000Y-26199000D02*
X86326000Y-28414000D01*
X96977200Y-39065200D02*
X98552000Y-39065200D01*
X86326000Y-28414000D02*
X96977200Y-39065200D01*
X77673200Y-39065200D02*
X96977200Y-39065200D01*
X55211000Y-26199000D02*
X55211000Y-31487400D01*
X62738000Y-39014400D02*
X52566400Y-39014400D01*
X77622400Y-39014400D02*
X62738000Y-39014400D01*
X55211000Y-31487400D02*
X62738000Y-39014400D01*
%TO.N,GND*%
X127914400Y-166268400D02*
X99568000Y-166268400D01*
X132486400Y-161696400D02*
X127914400Y-166268400D01*
X142515200Y-161696400D02*
X132486400Y-161696400D01*
X142587200Y-161624400D02*
X142515200Y-161696400D01*
%TO.N,+5V*%
X21691600Y-147218400D02*
X24587200Y-144322800D01*
X21539200Y-147218400D02*
X21691600Y-147218400D01*
X24587200Y-144322800D02*
X24688800Y-144322800D01*
%TO.N,+24V*%
X52566400Y-39014400D02*
X39751000Y-26199000D01*
X77622400Y-39014400D02*
X77673200Y-39065200D01*
X130307200Y-39065200D02*
X98552000Y-39065200D01*
X167781100Y-39065200D02*
X130307200Y-39065200D01*
D28*
%TO.N,N2HET2_14{slash}MIBSPI2SIMO*%
X102806800Y-162204400D02*
X102805200Y-162206000D01*
X124561600Y-162204400D02*
X102806800Y-162204400D01*
X141274800Y-145491200D02*
X124561600Y-162204400D01*
X157835600Y-145491200D02*
X141274800Y-145491200D01*
X163880800Y-119077992D02*
X163880800Y-139446000D01*
X105918000Y-99720400D02*
X144523208Y-99720400D01*
X144523208Y-99720400D02*
X163880800Y-119077992D01*
X163880800Y-139446000D02*
X157835600Y-145491200D01*
X83286600Y-77089000D02*
X105918000Y-99720400D01*
X83286600Y-77078200D02*
X83286600Y-77089000D01*
D29*
%TO.N,GND*%
X29566800Y-168148000D02*
X28043800Y-166625000D01*
X38862000Y-168148000D02*
X29566800Y-168148000D01*
X44653200Y-162356800D02*
X38862000Y-168148000D01*
X39014400Y-149199600D02*
X39014400Y-156514800D01*
X34696400Y-144881600D02*
X39014400Y-149199600D01*
X24536400Y-141427200D02*
X27990800Y-144881600D01*
X24536400Y-141376400D02*
X24536400Y-141427200D01*
X27990800Y-144881600D02*
X34696400Y-144881600D01*
X39014400Y-156514800D02*
X44856400Y-162356800D01*
X51308000Y-162356800D02*
X44856400Y-162356800D01*
X56388000Y-162356800D02*
X51308000Y-162356800D01*
X61468000Y-162356800D02*
X56388000Y-162356800D01*
X66548000Y-162356800D02*
X61468000Y-162356800D01*
X67818000Y-163626800D02*
X66548000Y-162356800D01*
X70459600Y-166268400D02*
X67818000Y-163626800D01*
X99568000Y-161701119D02*
X101603119Y-159666000D01*
X101603119Y-159666000D02*
X102805200Y-159666000D01*
X99568000Y-166268400D02*
X70459600Y-166268400D01*
X99568000Y-166268400D02*
X99568000Y-161701119D01*
X167781100Y-73343900D02*
X162255200Y-67818000D01*
X162255200Y-67818000D02*
X162255200Y-49671100D01*
X167781100Y-74676000D02*
X167781100Y-73343900D01*
X162255200Y-49671100D02*
X167781100Y-44145200D01*
X148328000Y-63609600D02*
X148328000Y-67368800D01*
X162306000Y-49631600D02*
X148328000Y-63609600D01*
X168402000Y-157175200D02*
X149555200Y-157175200D01*
X172770800Y-152806400D02*
X168402000Y-157175200D01*
X172770800Y-94905700D02*
X172770800Y-152806400D01*
X167781100Y-89916000D02*
X172770800Y-94905700D01*
X143641200Y-149991200D02*
X142536400Y-149991200D01*
X149555200Y-155905200D02*
X143641200Y-149991200D01*
X149555200Y-157175200D02*
X149555200Y-155905200D01*
D28*
%TO.N,N2HET2_3{slash}MIBSPI2CLK*%
X93787600Y-100279200D02*
X70586600Y-77078200D01*
X162610800Y-118821200D02*
X144068800Y-100279200D01*
X144068800Y-100279200D02*
X93787600Y-100279200D01*
X162610800Y-120243600D02*
X162610800Y-118821200D01*
%TO.N,N2HET2_23*%
X144702404Y-99263200D02*
X108011600Y-99263200D01*
X164497600Y-119058396D02*
X144702404Y-99263200D01*
X169095300Y-141264500D02*
X164497600Y-136666800D01*
X164497600Y-136666800D02*
X164497600Y-119058396D01*
X108011600Y-99263200D02*
X85826600Y-77078200D01*
D29*
%TO.N,GND*%
X145156800Y-161624400D02*
X142587200Y-161624400D01*
X149555200Y-157226000D02*
X145156800Y-161624400D01*
X149555200Y-157175200D02*
X149555200Y-157226000D01*
%TO.N,+5V*%
X21285200Y-81432400D02*
X21285200Y-86512400D01*
X21285200Y-76352400D02*
X21285200Y-81432400D01*
X21285200Y-86512400D02*
X21285200Y-91592400D01*
%TO.N,GND*%
X21285200Y-28346400D02*
X21285200Y-33426400D01*
X167781100Y-74676000D02*
X167781100Y-79756000D01*
X167781100Y-79756000D02*
X167781100Y-84836000D01*
X148328000Y-67368800D02*
X148328000Y-67586000D01*
X167781100Y-84836000D02*
X167781100Y-89916000D01*
X44856400Y-162356800D02*
X44653200Y-162356800D01*
%TO.N,+24V*%
X85852000Y-162356800D02*
X90932000Y-162356800D01*
X85852000Y-162356800D02*
X80772000Y-162356800D01*
X75692000Y-162356800D02*
X80772000Y-162356800D01*
%TO.N,+12V*%
X167813100Y-56946800D02*
X167813100Y-62026800D01*
X167813100Y-62026800D02*
X167813100Y-67106800D01*
X167813100Y-51866800D02*
X167813100Y-56946800D01*
D28*
%TO.N,DCAN2RX*%
X144550004Y-97028000D02*
X120243600Y-97028000D01*
X166070300Y-118548296D02*
X144550004Y-97028000D01*
X169095300Y-130764500D02*
X166070300Y-127739500D01*
X166070300Y-127739500D02*
X166070300Y-118548296D01*
%TO.N,DCAN2TX*%
X165620300Y-130789500D02*
X165620300Y-118782700D01*
X165620300Y-118782700D02*
X144678400Y-97840800D01*
X169095300Y-134264500D02*
X165620300Y-130789500D01*
X144678400Y-97840800D02*
X117144800Y-97840800D01*
%TO.N,N2HET2_4*%
X144830800Y-94589600D02*
X112318800Y-94589600D01*
X169095300Y-116764500D02*
X167005700Y-116764500D01*
X167005700Y-116764500D02*
X144830800Y-94589600D01*
%TO.N,AD2IN_23*%
X101066600Y-87350600D02*
X109626400Y-95910400D01*
X109626400Y-95910400D02*
X144068800Y-95910400D01*
X144068800Y-95910400D02*
X166520300Y-118361900D01*
X101066600Y-77078200D02*
X101066600Y-87350600D01*
X166520300Y-118361900D02*
X166520300Y-124689500D01*
X166520300Y-124689500D02*
X169095300Y-127264500D01*
%TD*%
M02*
