%TF.GenerationSoftware,KiCad,Pcbnew,(6.0.6)*%
%TF.CreationDate,2022-09-09T15:05:40+03:00*%
%TF.ProjectId,main_board,6d61696e-5f62-46f6-9172-642e6b696361,rev?*%
%TF.SameCoordinates,Original*%
%TF.FileFunction,Soldermask,Bot*%
%TF.FilePolarity,Negative*%
%FSLAX46Y46*%
G04 Gerber Fmt 4.6, Leading zero omitted, Abs format (unit mm)*
G04 Created by KiCad (PCBNEW (6.0.6)) date 2022-09-09 15:05:40*
%MOMM*%
%LPD*%
G01*
G04 APERTURE LIST*
G04 Aperture macros list*
%AMRoundRect*
0 Rectangle with rounded corners*
0 $1 Rounding radius*
0 $2 $3 $4 $5 $6 $7 $8 $9 X,Y pos of 4 corners*
0 Add a 4 corners polygon primitive as box body*
4,1,4,$2,$3,$4,$5,$6,$7,$8,$9,$2,$3,0*
0 Add four circle primitives for the rounded corners*
1,1,$1+$1,$2,$3*
1,1,$1+$1,$4,$5*
1,1,$1+$1,$6,$7*
1,1,$1+$1,$8,$9*
0 Add four rect primitives between the rounded corners*
20,1,$1+$1,$2,$3,$4,$5,0*
20,1,$1+$1,$4,$5,$6,$7,0*
20,1,$1+$1,$6,$7,$8,$9,0*
20,1,$1+$1,$8,$9,$2,$3,0*%
G04 Aperture macros list end*
%ADD10O,1.700000X1.700000*%
%ADD11R,2.800000X2.800000*%
%ADD12O,2.800000X2.800000*%
%ADD13RoundRect,0.249999X1.550001X-0.790001X1.550001X0.790001X-1.550001X0.790001X-1.550001X-0.790001X0*%
%ADD14O,3.600000X2.080000*%
%ADD15C,1.524000*%
%ADD16RoundRect,0.249999X-1.550001X0.790001X-1.550001X-0.790001X1.550001X-0.790001X1.550001X0.790001X0*%
%ADD17R,1.700000X1.700000*%
%ADD18O,1.800000X3.600000*%
%ADD19RoundRect,0.250000X0.650000X1.550000X-0.650000X1.550000X-0.650000X-1.550000X0.650000X-1.550000X0*%
%ADD20RoundRect,0.250000X1.550000X-0.650000X1.550000X0.650000X-1.550000X0.650000X-1.550000X-0.650000X0*%
%ADD21O,3.600000X1.800000*%
%ADD22RoundRect,0.249999X0.790001X1.550001X-0.790001X1.550001X-0.790001X-1.550001X0.790001X-1.550001X0*%
%ADD23O,2.080000X3.600000*%
%ADD24C,1.676400*%
%ADD25RoundRect,0.076200X0.762000X-0.762000X0.762000X0.762000X-0.762000X0.762000X-0.762000X-0.762000X0*%
%ADD26RoundRect,0.250000X-1.550000X0.650000X-1.550000X-0.650000X1.550000X-0.650000X1.550000X0.650000X0*%
G04 APERTURE END LIST*
D10*
%TO.C,U4*%
X142536400Y-147451200D03*
X142536400Y-149991200D03*
X142536400Y-152531200D03*
X142536400Y-155071200D03*
D11*
X166502400Y-148841200D03*
D12*
X166502400Y-153921200D03*
%TD*%
D10*
%TO.C,U3*%
X142587200Y-159084400D03*
X142587200Y-161624400D03*
X142587200Y-164164400D03*
X142587200Y-166704400D03*
D11*
X166553200Y-160474400D03*
D12*
X166553200Y-165554400D03*
%TD*%
D13*
%TO.C,J5*%
X21285200Y-91592400D03*
D14*
X21285200Y-86512400D03*
X21285200Y-81432400D03*
X21285200Y-76352400D03*
%TD*%
D15*
%TO.C,U1*%
X22963800Y-166625000D03*
X25503800Y-166625000D03*
X28043800Y-166625000D03*
X30583800Y-166625000D03*
X33123800Y-166625000D03*
X35663800Y-166625000D03*
X25503800Y-148591000D03*
X28043800Y-148591000D03*
X30583800Y-148591000D03*
X33123800Y-148591000D03*
%TD*%
D13*
%TO.C,J1*%
X21285200Y-43586400D03*
D14*
X21285200Y-38506400D03*
X21285200Y-33426400D03*
X21285200Y-28346400D03*
%TD*%
D16*
%TO.C,J2*%
X167781100Y-28448000D03*
D14*
X167781100Y-33528000D03*
X167781100Y-38608000D03*
X167781100Y-43688000D03*
%TD*%
D17*
%TO.C,MODULE1*%
X153408000Y-67586000D03*
D10*
X150868000Y-67586000D03*
X148328000Y-67586000D03*
X83693000Y-67564000D03*
X86233000Y-67564000D03*
X88773000Y-67564000D03*
X91313000Y-67564000D03*
X93853000Y-67564000D03*
X96393000Y-67564000D03*
X98933000Y-67564000D03*
X101473000Y-67564000D03*
X104013000Y-67564000D03*
D17*
X106553000Y-67564000D03*
D18*
X34671000Y-26199000D03*
X39751000Y-26199000D03*
D19*
X44831000Y-26199000D03*
D18*
X50131000Y-26199000D03*
X55211000Y-26199000D03*
D19*
X60291000Y-26199000D03*
D18*
X65786000Y-26199000D03*
X70866000Y-26199000D03*
D19*
X75946000Y-26199000D03*
D18*
X81246000Y-26199000D03*
X86326000Y-26199000D03*
D19*
X91406000Y-26199000D03*
D18*
X96901000Y-26199000D03*
X101981000Y-26199000D03*
D19*
X107061000Y-26199000D03*
D18*
X112361000Y-26199000D03*
X117441000Y-26199000D03*
D19*
X122521000Y-26199000D03*
D18*
X128050000Y-26162000D03*
X133130000Y-26162000D03*
D19*
X138210000Y-26162000D03*
D18*
X143510000Y-26162000D03*
X148590000Y-26162000D03*
D19*
X153670000Y-26162000D03*
%TD*%
D20*
%TO.C,J4*%
X169095300Y-141264500D03*
D21*
X169095300Y-137764500D03*
X169095300Y-134264500D03*
X169095300Y-130764500D03*
X169095300Y-127264500D03*
X169095300Y-123764500D03*
X169095300Y-120264500D03*
X169095300Y-116764500D03*
%TD*%
D22*
%TO.C,J9*%
X66548000Y-162356800D03*
D23*
X61468000Y-162356800D03*
X56388000Y-162356800D03*
X51308000Y-162356800D03*
%TD*%
D16*
%TO.C,J6*%
X167813100Y-51866800D03*
D14*
X167813100Y-56946800D03*
X167813100Y-62026800D03*
X167813100Y-67106800D03*
%TD*%
D13*
%TO.C,J3*%
X21285200Y-67716400D03*
D14*
X21285200Y-62636400D03*
X21285200Y-57556400D03*
X21285200Y-52476400D03*
%TD*%
D16*
%TO.C,J8*%
X167781100Y-75234800D03*
D14*
X167781100Y-80314800D03*
X167781100Y-85394800D03*
X167781100Y-90474800D03*
%TD*%
D24*
%TO.C,U2*%
X154406600Y-140578200D03*
X151866600Y-140578200D03*
X149326600Y-140578200D03*
X146786600Y-140578200D03*
X144246600Y-140578200D03*
X141706600Y-140578200D03*
X139166600Y-140578200D03*
X136626600Y-140578200D03*
X134086600Y-140578200D03*
D25*
X131546600Y-140578200D03*
D24*
X129006600Y-140578200D03*
X126466600Y-140578200D03*
X123926600Y-140578200D03*
X121386600Y-140578200D03*
X118846600Y-140578200D03*
X116306600Y-140578200D03*
X113766600Y-140578200D03*
X111226600Y-140578200D03*
X108686600Y-140578200D03*
D25*
X106146600Y-140578200D03*
D24*
X103606600Y-140578200D03*
X101066600Y-140578200D03*
X98526600Y-140578200D03*
X95986600Y-140578200D03*
X93446600Y-140578200D03*
X90906600Y-140578200D03*
X88366600Y-140578200D03*
X85826600Y-140578200D03*
X83286600Y-140578200D03*
D25*
X80746600Y-140578200D03*
D24*
X78206600Y-140578200D03*
X75666600Y-140578200D03*
X73126600Y-140578200D03*
X70586600Y-140578200D03*
X68046600Y-140578200D03*
X65506600Y-140578200D03*
X62966600Y-140578200D03*
X60426600Y-140578200D03*
X57886600Y-140578200D03*
D25*
X55346600Y-140578200D03*
D24*
X52806600Y-140578200D03*
X50266600Y-140578200D03*
X47726600Y-140578200D03*
X45186600Y-140578200D03*
X42646600Y-140578200D03*
X40106600Y-140578200D03*
X37566600Y-140578200D03*
X35026600Y-140578200D03*
X32486600Y-140578200D03*
D25*
X29946600Y-140578200D03*
D24*
X154406600Y-77078200D03*
X151866600Y-77078200D03*
X149326600Y-77078200D03*
X146786600Y-77078200D03*
X144246600Y-77078200D03*
X141706600Y-77078200D03*
X139166600Y-77078200D03*
X136626600Y-77078200D03*
X134086600Y-77078200D03*
D25*
X131546600Y-77078200D03*
D24*
X129006600Y-77078200D03*
X126466600Y-77078200D03*
X123926600Y-77078200D03*
X121386600Y-77078200D03*
X118846600Y-77078200D03*
X116306600Y-77078200D03*
X113766600Y-77078200D03*
X111226600Y-77078200D03*
X108686600Y-77078200D03*
D25*
X106146600Y-77078200D03*
D24*
X103606600Y-77078200D03*
X101066600Y-77078200D03*
X98526600Y-77078200D03*
X95986600Y-77078200D03*
X93446600Y-77078200D03*
X90906600Y-77078200D03*
X88366600Y-77078200D03*
X85826600Y-77078200D03*
X83286600Y-77078200D03*
D25*
X80746600Y-77078200D03*
D24*
X78206600Y-77078200D03*
X75666600Y-77078200D03*
X73126600Y-77078200D03*
X70586600Y-77078200D03*
X68046600Y-77078200D03*
X65506600Y-77078200D03*
X62966600Y-77078200D03*
X60426600Y-77078200D03*
X57886600Y-77078200D03*
D25*
X55346600Y-77078200D03*
D24*
X52806600Y-77078200D03*
X50266600Y-77078200D03*
X47726600Y-77078200D03*
X45186600Y-77078200D03*
X42646600Y-77078200D03*
X40106600Y-77078200D03*
X37566600Y-77078200D03*
X35026600Y-77078200D03*
X32486600Y-77078200D03*
D25*
X29946600Y-77078200D03*
D24*
X131546600Y-88508200D03*
X129006600Y-88508200D03*
X126466600Y-88508200D03*
X123926600Y-88508200D03*
X121386600Y-88508200D03*
X118846600Y-88508200D03*
X116306600Y-88508200D03*
X113766600Y-88508200D03*
X111226600Y-88508200D03*
D25*
X108686600Y-88508200D03*
D24*
X131546600Y-129148200D03*
X129006600Y-129148200D03*
X126466600Y-129148200D03*
X123926600Y-129148200D03*
X121386600Y-129148200D03*
X118846600Y-129148200D03*
X116306600Y-129148200D03*
X113766600Y-129148200D03*
X111226600Y-129148200D03*
D25*
X108686600Y-129148200D03*
D24*
X131546600Y-85968200D03*
X129006600Y-85968200D03*
X126466600Y-85968200D03*
X123926600Y-85968200D03*
X121386600Y-85968200D03*
X118846600Y-85968200D03*
X116306600Y-85968200D03*
X113766600Y-85968200D03*
X111226600Y-85968200D03*
D25*
X108686600Y-85968200D03*
D24*
X131546600Y-131688200D03*
X129006600Y-131688200D03*
X126466600Y-131688200D03*
X123926600Y-131688200D03*
X121386600Y-131688200D03*
X118846600Y-131688200D03*
X116306600Y-131688200D03*
X113766600Y-131688200D03*
X111226600Y-131688200D03*
D25*
X108686600Y-131688200D03*
D24*
X68046600Y-88508200D03*
X65506600Y-88508200D03*
X62966600Y-88508200D03*
X60426600Y-88508200D03*
X57886600Y-88508200D03*
X55346600Y-88508200D03*
X52806600Y-88508200D03*
X50266600Y-88508200D03*
X47726600Y-88508200D03*
D25*
X45186600Y-88508200D03*
D24*
X68046600Y-129148200D03*
X65506600Y-129148200D03*
X62966600Y-129148200D03*
X60426600Y-129148200D03*
X57886600Y-129148200D03*
X55346600Y-129148200D03*
X52806600Y-129148200D03*
X50266600Y-129148200D03*
X47726600Y-129148200D03*
D25*
X45186600Y-129148200D03*
D24*
X68046600Y-85968200D03*
X65506600Y-85968200D03*
X62966600Y-85968200D03*
X60426600Y-85968200D03*
X57886600Y-85968200D03*
X55346600Y-85968200D03*
X52806600Y-85968200D03*
X50266600Y-85968200D03*
X47726600Y-85968200D03*
D25*
X45186600Y-85968200D03*
D24*
X68046600Y-131688200D03*
X65506600Y-131688200D03*
X62966600Y-131688200D03*
X60426600Y-131688200D03*
X57886600Y-131688200D03*
X55346600Y-131688200D03*
X52806600Y-131688200D03*
X50266600Y-131688200D03*
X47726600Y-131688200D03*
D25*
X45186600Y-131688200D03*
%TD*%
D10*
%TO.C,U5*%
X102805200Y-157126000D03*
X102805200Y-159666000D03*
D17*
X102805200Y-162206000D03*
D26*
X136019200Y-154498000D03*
D21*
X136019200Y-159578000D03*
X136019200Y-164658000D03*
%TD*%
D22*
%TO.C,J7*%
X90932000Y-162356800D03*
D23*
X85852000Y-162356800D03*
X80772000Y-162356800D03*
X75692000Y-162356800D03*
%TD*%
M02*
