M48
; DRILL file {KiCad (6.0.6)} date Fri Sep  9 15:48:17 2022
; FORMAT={-:-/ absolute / metric / decimal}
; #@! TF.CreationDate,2022-09-09T15:48:17+03:00
; #@! TF.GenerationSoftware,Kicad,Pcbnew,(6.0.6)
; #@! TF.FileFunction,Plated,1,2,PTH
FMAT,2
METRIC
; #@! TA.AperFunction,Plated,PTH,ViaDrill
T1C0.400
; #@! TA.AperFunction,Plated,PTH,ComponentDrill
T2C0.762
; #@! TA.AperFunction,Plated,PTH,ComponentDrill
T3C1.000
; #@! TA.AperFunction,Plated,PTH,ComponentDrill
T4C1.016
; #@! TA.AperFunction,Plated,PTH,ComponentDrill
T5C1.200
; #@! TA.AperFunction,Plated,PTH,ComponentDrill
T6C1.400
%
G90
G05
T1
X21.539Y-147.218
X24.536Y-141.376
X24.689Y-144.323
X29.82Y-80.823
X29.82Y-82.906
X112.319Y-94.59
X117.145Y-97.841
X120.244Y-97.028
X162.611Y-120.244
T2
X22.964Y-166.625
X25.504Y-148.591
X25.504Y-166.625
X28.044Y-148.591
X28.044Y-166.625
X30.584Y-148.591
X30.584Y-166.625
X33.124Y-148.591
X33.124Y-166.625
X35.664Y-166.625
T3
X83.693Y-67.564
X86.233Y-67.564
X88.773Y-67.564
X91.313Y-67.564
X93.853Y-67.564
X96.393Y-67.564
X98.933Y-67.564
X101.473Y-67.564
X102.805Y-157.126
X102.805Y-159.666
X102.805Y-162.206
X104.013Y-67.564
X106.553Y-67.564
X142.536Y-147.451
X142.536Y-149.991
X142.536Y-152.531
X142.536Y-155.071
X142.587Y-159.084
X142.587Y-161.624
X142.587Y-164.164
X142.587Y-166.704
X148.328Y-67.586
X150.868Y-67.586
X153.408Y-67.586
T4
X29.947Y-77.078
X29.947Y-140.578
X32.487Y-77.078
X32.487Y-140.578
X35.027Y-77.078
X35.027Y-140.578
X37.567Y-77.078
X37.567Y-140.578
X40.107Y-77.078
X40.107Y-140.578
X42.647Y-77.078
X42.647Y-140.578
X45.187Y-77.078
X45.187Y-85.968
X45.187Y-88.508
X45.187Y-129.148
X45.187Y-131.688
X45.187Y-140.578
X47.727Y-77.078
X47.727Y-85.968
X47.727Y-88.508
X47.727Y-129.148
X47.727Y-131.688
X47.727Y-140.578
X50.267Y-77.078
X50.267Y-85.968
X50.267Y-88.508
X50.267Y-129.148
X50.267Y-131.688
X50.267Y-140.578
X52.807Y-77.078
X52.807Y-85.968
X52.807Y-88.508
X52.807Y-129.148
X52.807Y-131.688
X52.807Y-140.578
X55.347Y-77.078
X55.347Y-85.968
X55.347Y-88.508
X55.347Y-129.148
X55.347Y-131.688
X55.347Y-140.578
X57.887Y-77.078
X57.887Y-85.968
X57.887Y-88.508
X57.887Y-129.148
X57.887Y-131.688
X57.887Y-140.578
X60.427Y-77.078
X60.427Y-85.968
X60.427Y-88.508
X60.427Y-129.148
X60.427Y-131.688
X60.427Y-140.578
X62.967Y-77.078
X62.967Y-85.968
X62.967Y-88.508
X62.967Y-129.148
X62.967Y-131.688
X62.967Y-140.578
X65.507Y-77.078
X65.507Y-85.968
X65.507Y-88.508
X65.507Y-129.148
X65.507Y-131.688
X65.507Y-140.578
X68.047Y-77.078
X68.047Y-85.968
X68.047Y-88.508
X68.047Y-129.148
X68.047Y-131.688
X68.047Y-140.578
X70.587Y-77.078
X70.587Y-140.578
X73.127Y-77.078
X73.127Y-140.578
X75.667Y-77.078
X75.667Y-140.578
X78.207Y-77.078
X78.207Y-140.578
X80.747Y-77.078
X80.747Y-140.578
X83.287Y-77.078
X83.287Y-140.578
X85.827Y-77.078
X85.827Y-140.578
X88.367Y-77.078
X88.367Y-140.578
X90.907Y-77.078
X90.907Y-140.578
X93.447Y-77.078
X93.447Y-140.578
X95.987Y-77.078
X95.987Y-140.578
X98.527Y-77.078
X98.527Y-140.578
X101.067Y-77.078
X101.067Y-140.578
X103.607Y-77.078
X103.607Y-140.578
X106.147Y-77.078
X106.147Y-140.578
X108.687Y-77.078
X108.687Y-85.968
X108.687Y-88.508
X108.687Y-129.148
X108.687Y-131.688
X108.687Y-140.578
X111.227Y-77.078
X111.227Y-85.968
X111.227Y-88.508
X111.227Y-129.148
X111.227Y-131.688
X111.227Y-140.578
X113.767Y-77.078
X113.767Y-85.968
X113.767Y-88.508
X113.767Y-129.148
X113.767Y-131.688
X113.767Y-140.578
X116.307Y-77.078
X116.307Y-85.968
X116.307Y-88.508
X116.307Y-129.148
X116.307Y-131.688
X116.307Y-140.578
X118.847Y-77.078
X118.847Y-85.968
X118.847Y-88.508
X118.847Y-129.148
X118.847Y-131.688
X118.847Y-140.578
X121.387Y-77.078
X121.387Y-85.968
X121.387Y-88.508
X121.387Y-129.148
X121.387Y-131.688
X121.387Y-140.578
X123.927Y-77.078
X123.927Y-85.968
X123.927Y-88.508
X123.927Y-129.148
X123.927Y-131.688
X123.927Y-140.578
X126.467Y-77.078
X126.467Y-85.968
X126.467Y-88.508
X126.467Y-129.148
X126.467Y-131.688
X126.467Y-140.578
X129.007Y-77.078
X129.007Y-85.968
X129.007Y-88.508
X129.007Y-129.148
X129.007Y-131.688
X129.007Y-140.578
X131.547Y-77.078
X131.547Y-85.968
X131.547Y-88.508
X131.547Y-129.148
X131.547Y-131.688
X131.547Y-140.578
X134.087Y-77.078
X134.087Y-140.578
X136.627Y-77.078
X136.627Y-140.578
X139.167Y-77.078
X139.167Y-140.578
X141.707Y-77.078
X141.707Y-140.578
X144.247Y-77.078
X144.247Y-140.578
X146.787Y-77.078
X146.787Y-140.578
X149.327Y-77.078
X149.327Y-140.578
X151.867Y-77.078
X151.867Y-140.578
X154.407Y-77.078
X154.407Y-140.578
T5
X34.671Y-26.199
X39.751Y-26.199
X44.831Y-26.199
X50.131Y-26.199
X55.211Y-26.199
X60.291Y-26.199
X65.786Y-26.199
X70.866Y-26.199
X75.946Y-26.199
X81.246Y-26.199
X86.326Y-26.199
X91.406Y-26.199
X96.901Y-26.199
X101.981Y-26.199
X107.061Y-26.199
X112.361Y-26.199
X117.441Y-26.199
X122.521Y-26.199
X128.05Y-26.162
X133.13Y-26.162
X136.019Y-154.498
X136.019Y-159.578
X136.019Y-164.658
X138.21Y-26.162
X143.51Y-26.162
X148.59Y-26.162
X153.67Y-26.162
X169.095Y-116.764
X169.095Y-120.264
X169.095Y-123.764
X169.095Y-127.264
X169.095Y-130.764
X169.095Y-134.264
X169.095Y-137.764
X169.095Y-141.264
T6
X21.285Y-28.346
X21.285Y-33.426
X21.285Y-38.506
X21.285Y-43.586
X21.285Y-52.476
X21.285Y-57.556
X21.285Y-62.636
X21.285Y-67.716
X21.285Y-76.352
X21.285Y-81.432
X21.285Y-86.512
X21.285Y-91.592
X51.308Y-162.357
X56.388Y-162.357
X61.468Y-162.357
X66.548Y-162.357
X75.692Y-162.357
X80.772Y-162.357
X85.852Y-162.357
X90.932Y-162.357
X166.502Y-148.841
X166.502Y-153.921
X166.553Y-160.474
X166.553Y-165.554
X167.781Y-28.448
X167.781Y-33.528
X167.781Y-38.608
X167.781Y-43.688
X167.781Y-75.235
X167.781Y-80.315
X167.781Y-85.395
X167.781Y-90.475
X167.813Y-51.867
X167.813Y-56.947
X167.813Y-62.027
X167.813Y-67.107
T0
M30
